<svg width="19" height="17" viewBox="0 0 19 17" fill="none" xmlns="http://www.w3.org/2000/svg">
<path d="M16.15 3.77778H15.2V2.83333C15.2 2.08189 14.8997 1.36122 14.3653 0.829864C13.8308 0.298511 13.1059 0 12.35 0H2.85C2.09413 0 1.36922 0.298511 0.834746 0.829864C0.300267 1.36122 0 2.08189 0 2.83333V14.1667C0 14.9181 0.300267 15.6388 0.834746 16.1701C1.36922 16.7015 2.09413 17 2.85 17H16.15C16.9059 17 17.6308 16.7015 18.1653 16.1701C18.6997 15.6388 19 14.9181 19 14.1667V6.61111C19 5.85966 18.6997 5.13899 18.1653 4.60764C17.6308 4.07629 16.9059 3.77778 16.15 3.77778ZM2.85 1.88889H12.35C12.602 1.88889 12.8436 1.98839 13.0218 2.16551C13.1999 2.34263 13.3 2.58285 13.3 2.83333V3.77778H2.85C2.59804 3.77778 2.35641 3.67827 2.17825 3.50116C2.00009 3.32404 1.9 3.08382 1.9 2.83333C1.9 2.58285 2.00009 2.34263 2.17825 2.16551C2.35641 1.98839 2.59804 1.88889 2.85 1.88889ZM17.1 11.3333H16.15C15.898 11.3333 15.6564 11.2338 15.4782 11.0567C15.3001 10.8796 15.2 10.6394 15.2 10.3889C15.2 10.1384 15.3001 9.89818 15.4782 9.72107C15.6564 9.54395 15.898 9.44444 16.15 9.44444H17.1V11.3333ZM17.1 7.55556H16.15C15.3941 7.55556 14.6692 7.85407 14.1347 8.38542C13.6003 8.91677 13.3 9.63744 13.3 10.3889C13.3 11.1403 13.6003 11.861 14.1347 12.3924C14.6692 12.9237 15.3941 13.2222 16.15 13.2222H17.1V14.1667C17.1 14.4171 16.9999 14.6574 16.8218 14.8345C16.6436 15.0116 16.402 15.1111 16.15 15.1111H2.85C2.59804 15.1111 2.35641 15.0116 2.17825 14.8345C2.00009 14.6574 1.9 14.4171 1.9 14.1667V5.50611C2.2052 5.61285 2.52646 5.66714 2.85 5.66667H16.15C16.402 5.66667 16.6436 5.76617 16.8218 5.94329C16.9999 6.12041 17.1 6.36063 17.1 6.61111V7.55556Z" fill="black"/>
</svg>
