<svg width="16" height="16" viewBox="0 0 16 16" fill="none" xmlns="http://www.w3.org/2000/svg">
<path d="M8 16C3.589 16 0 12.411 0 8C0 3.589 3.589 0 8 0C12.411 0 16 3.589 16 8C16 12.411 12.411 16 8 16ZM8 2C4.691 2 2 4.691 2 8C2 11.309 4.691 14 8 14C11.309 14 14 11.309 14 8C14 4.691 11.309 2 8 2Z" fill="#606060"/>
<path d="M8.38788 12H7.61212C7.0686 11.9978 6.54018 11.8162 6.10487 11.482C5.66957 11.1478 5.35046 10.6787 5.19467 10.1441C5.15537 10.0177 5.14105 9.88454 5.15257 9.75242C5.16408 9.6203 5.20119 9.49187 5.26172 9.37467C5.32224 9.25748 5.40497 9.15389 5.50503 9.06998C5.60509 8.98608 5.72047 8.92354 5.84439 8.88606C5.96832 8.84858 6.09829 8.8369 6.22667 8.85171C6.35506 8.86652 6.47926 8.90752 6.592 8.97231C6.70473 9.03709 6.80372 9.12436 6.88315 9.22897C6.96259 9.33359 7.02086 9.45344 7.05455 9.5815C7.12728 9.83341 7.35709 10.0096 7.61212 10.0096H8.38788C8.54232 10.0096 8.69043 9.94665 8.79963 9.83452C8.90883 9.72239 8.97018 9.57031 8.97018 9.41174C8.97018 9.25317 8.90883 9.10109 8.79963 8.98896C8.69043 8.87683 8.54232 8.81384 8.38788 8.81384H7.61212C6.22158 8.81384 5.09091 7.65189 5.09091 6.2251C5.09091 4.7983 6.22158 3.63635 7.61212 3.63635H8.38788C9.47491 3.63635 10.4349 4.34726 10.7792 5.40666C10.8214 5.53117 10.8392 5.66307 10.8314 5.79469C10.8236 5.92631 10.7904 6.05503 10.7338 6.17338C10.6771 6.29173 10.5982 6.39735 10.5015 6.48411C10.4048 6.57087 10.2922 6.63704 10.1704 6.67877C10.0486 6.72051 9.9199 6.73699 9.79182 6.72725C9.66375 6.71751 9.53884 6.68174 9.42434 6.62203C9.30984 6.56231 9.20803 6.47984 9.12482 6.3794C9.04162 6.27895 8.97867 6.16254 8.93964 6.03692C8.90141 5.9177 8.82748 5.81393 8.72839 5.74044C8.62929 5.66695 8.51012 5.62749 8.38788 5.62769H7.61212C7.45782 5.62769 7.30983 5.69063 7.20072 5.80267C7.0916 5.9147 7.03031 6.06666 7.03031 6.2251C7.03031 6.38354 7.0916 6.53549 7.20072 6.64752C7.30983 6.75956 7.45782 6.8225 7.61212 6.8225H8.38788C9.77843 6.8225 10.9091 7.98445 10.9091 9.41124C10.9091 10.838 9.77843 12 8.38788 12Z" fill="#606060"/>
<path d="M8 4.93529C7.70436 4.93529 7.43163 4.82315 7.22545 4.63965C7.18182 4.58867 7.12727 4.5377 7.09454 4.47653C7.05129 4.42453 7.01806 4.36589 6.99636 4.30323C6.96499 4.24531 6.94258 4.18353 6.92982 4.11972C6.92 4.04836 6.90909 3.98719 6.90909 3.91583C6.90909 3.65077 7.028 3.38571 7.22545 3.19202C7.62909 2.81482 8.36 2.81482 8.77454 3.19202C8.97091 3.38571 9.09091 3.65077 9.09091 3.91583C9.09091 3.98719 9.08 4.04836 9.068 4.11972C9.05662 4.18372 9.03454 4.24565 9.00254 4.30323C8.9804 4.36571 8.94722 4.42429 8.90436 4.47653C8.86073 4.5377 8.81709 4.58867 8.77345 4.63965C8.56727 4.82315 8.28363 4.93529 8 4.93529ZM8 13.0909C7.70436 13.0909 7.43163 12.9788 7.22545 12.7953C7.18182 12.7443 7.12727 12.6933 7.09454 12.6322C7.05129 12.5802 7.01806 12.5215 6.99636 12.4589C6.96499 12.401 6.94258 12.3392 6.92982 12.2754C6.92 12.204 6.90909 12.1428 6.90909 12.0715C6.90909 11.8064 7.028 11.5414 7.22545 11.3477C7.62909 10.9705 8.36 10.9705 8.77454 11.3477C8.97091 11.5414 9.09091 11.8064 9.09091 12.0715C9.09091 12.1428 9.08 12.204 9.068 12.2754C9.05662 12.3394 9.03454 12.4013 9.00254 12.4589C8.9804 12.5214 8.94722 12.5799 8.90436 12.6322C8.86073 12.6933 8.81709 12.7443 8.77345 12.7953C8.56727 12.9788 8.28363 13.0909 8 13.0909Z" fill="#606060"/>
</svg>
