<svg width="33" height="34" viewBox="0 0 33 34" fill="none" xmlns="http://www.w3.org/2000/svg">
<g id="&#240;&#159;&#166;&#134; icon &#34;lock 1&#34;">
<g id="Group">
<path id="Vector" d="M27.2162 10.9677V14.3799C26.5012 14.2824 25.6888 14.2337 24.7789 14.2174V10.9677C24.7789 5.84947 23.3328 2.4373 16.2485 2.4373C9.16414 2.4373 7.71803 5.84947 7.71803 10.9677V14.2174C6.80812 14.2337 5.99569 14.2824 5.28076 14.3799V10.9677C5.28076 6.25568 6.41815 2.67029e-05 16.2485 2.67029e-05C26.0788 2.67029e-05 27.2162 6.25568 27.2162 10.9677Z" fill="#292D32"/>
<path id="Vector_2" d="M27.2162 14.3799C26.5012 14.2824 25.6888 14.2337 24.7789 14.2174H7.71802C6.8081 14.2337 5.99568 14.2824 5.28075 14.3799C1.13739 14.8836 0 16.9147 0 22.3417V25.5913C0 32.0907 1.62485 33.7156 8.12423 33.7156H24.3727C30.8721 33.7156 32.4969 32.0907 32.4969 25.5913V22.3417C32.4969 16.9147 31.3595 14.8836 27.2162 14.3799ZM10.9027 25.1201C10.594 25.4126 10.1715 25.5913 9.74907 25.5913C9.53784 25.5913 9.32661 25.5426 9.13163 25.4614C8.9204 25.3801 8.75792 25.2664 8.59543 25.1201C8.30296 24.8114 8.12423 24.389 8.12423 23.9665C8.12423 23.7553 8.17297 23.544 8.25422 23.3491C8.33546 23.1541 8.4492 22.9753 8.59543 22.8129C8.75792 22.6666 8.9204 22.5529 9.13163 22.4716C9.73283 22.2117 10.4478 22.3579 10.9027 22.8129C11.049 22.9753 11.1627 23.1541 11.2439 23.3491C11.3252 23.544 11.3739 23.7553 11.3739 23.9665C11.3739 24.389 11.1952 24.8114 10.9027 25.1201ZM17.7433 24.5839C17.6621 24.7789 17.5483 24.9577 17.4021 25.1201C17.0934 25.4126 16.6709 25.5913 16.2485 25.5913C15.8097 25.5913 15.4035 25.4126 15.0948 25.1201C14.9486 24.9577 14.8348 24.7789 14.7536 24.5839C14.6724 24.389 14.6236 24.1777 14.6236 23.9665C14.6236 23.5278 14.8023 23.1216 15.0948 22.8129C15.696 22.2117 16.7847 22.2117 17.4021 22.8129C17.6946 23.1216 17.8733 23.5278 17.8733 23.9665C17.8733 24.1777 17.8246 24.389 17.7433 24.5839ZM23.9015 25.1201C23.5928 25.4126 23.1703 25.5913 22.7478 25.5913C22.3254 25.5913 21.9029 25.4126 21.5942 25.1201C21.3017 24.8114 21.123 24.4052 21.123 23.9665C21.123 23.5278 21.3017 23.1216 21.5942 22.8129C22.2116 22.2117 23.3003 22.2117 23.9015 22.8129C23.9665 22.8941 24.0315 22.9753 24.0965 23.0728C24.1615 23.1541 24.2102 23.2516 24.2427 23.3491C24.2914 23.4465 24.3239 23.544 24.3402 23.6415C24.3564 23.7553 24.3727 23.869 24.3727 23.9665C24.3727 24.389 24.194 24.8114 23.9015 25.1201Z" fill="#292D32"/>
</g>
</g>
</svg>
