<svg width="60" height="61" viewBox="0 0 60 61" fill="none" xmlns="http://www.w3.org/2000/svg">
<g id="&#240;&#159;&#166;&#134; icon &#34;close square&#34;">
<path id="Vector" d="M42.578 0H17.4333C6.51123 0 0 6.51123 0 17.4333V42.548C0 53.5001 6.51123 60.0113 17.4333 60.0113H42.548C53.4701 60.0113 59.9813 53.5001 59.9813 42.578V17.4333C60.0113 6.51123 53.5001 0 42.578 0ZM40.0876 36.907C40.9577 37.7771 40.9577 39.2174 40.0876 40.0876C39.6375 40.5376 39.0674 40.7477 38.4973 40.7477C37.9272 40.7477 37.3571 40.5376 36.907 40.0876L30.0057 33.1863L23.1044 40.0876C22.6543 40.5376 22.0842 40.7477 21.5141 40.7477C20.944 40.7477 20.3738 40.5376 19.9238 40.0876C19.0536 39.2174 19.0536 37.7771 19.9238 36.907L26.8251 30.0057L19.9238 23.1044C19.0536 22.2342 19.0536 20.7939 19.9238 19.9238C20.7939 19.0536 22.2342 19.0536 23.1044 19.9238L30.0057 26.8251L36.907 19.9238C37.7771 19.0536 39.2174 19.0536 40.0876 19.9238C40.9577 20.7939 40.9577 22.2342 40.0876 23.1044L33.1863 30.0057L40.0876 36.907Z" fill="#3E4095"/>
</g>
</svg>
