<svg width="16" height="16" viewBox="0 0 16 16" fill="none" xmlns="http://www.w3.org/2000/svg">
<path d="M13 0C13.7956 0 14.5587 0.316071 15.1213 0.87868C15.6839 1.44129 16 2.20435 16 3V13C16 13.7956 15.6839 14.5587 15.1213 15.1213C14.5587 15.6839 13.7956 16 13 16H3C2.20435 16 1.44129 15.6839 0.87868 15.1213C0.316071 14.5587 3.98687e-07 13.7956 3.98687e-07 13V11.241L0.879 12.12C1.2 12.441 1.584 12.67 2 12.817V13C2 13.2652 2.10536 13.5196 2.29289 13.7071C2.48043 13.8946 2.73478 14 3 14H13C13.553 14 14 13.553 14 13V3C14 2.73478 13.8946 2.48043 13.7071 2.29289C13.5196 2.10536 13.2652 2 13 2H3C2.448 2 2 2.448 2 3V3.182C1.585 3.329 1.201 3.557 0.879 3.878L3.98687e-07 4.757V3C3.98687e-07 2.20435 0.316071 1.44129 0.87868 0.87868C1.44129 0.316071 2.20435 0 3 0L13 0ZM3.383 5.075C3.56563 5.15082 3.72171 5.27905 3.83152 5.4435C3.94134 5.60795 3.99996 5.80125 4 5.999V7H7C7.26522 7 7.51957 7.10536 7.70711 7.29289C7.89464 7.48043 8 7.73478 8 8C8 8.553 7.553 9 7 9H4V9.999C4 10.403 3.756 10.769 3.383 10.923C3.20015 10.9983 2.99914 11.0178 2.80521 10.9792C2.61128 10.9406 2.43309 10.8456 2.293 10.706L0.293 8.706C0.200017 8.61325 0.126268 8.50305 0.0759871 8.38172C0.025706 8.2604 -0.000117027 8.13033 3.98687e-07 7.999C3.98687e-07 7.743 0.0980004 7.487 0.293 7.292L2.293 5.292C2.43297 5.15226 2.61117 5.05708 2.80514 5.01846C2.99912 4.97985 3.20019 4.99952 3.383 5.075Z" fill="#606060"/>
</svg>
