<svg width="13" height="16" viewBox="0 0 13 16" fill="none" xmlns="http://www.w3.org/2000/svg">
<path d="M6.22222 7.11111C6.92544 7.11111 7.61287 6.90258 8.19758 6.51189C8.78229 6.1212 9.23802 5.5659 9.50713 4.91621C9.77624 4.26652 9.84665 3.55161 9.70946 2.8619C9.57227 2.17219 9.23363 1.53865 8.73638 1.0414C8.23913 0.544146 7.60559 0.205512 6.91588 0.0683206C6.22617 -0.0688713 5.51126 0.00154055 4.86157 0.270652C4.21188 0.539764 3.65658 0.995488 3.26589 1.5802C2.8752 2.1649 2.66667 2.85233 2.66667 3.55556C2.66667 4.49855 3.04127 5.40292 3.70806 6.06971C4.37486 6.73651 5.27923 7.11111 6.22222 7.11111ZM11.5556 16C11.7913 16 12.0174 15.9064 12.1841 15.7397C12.3508 15.573 12.4444 15.3469 12.4444 15.1111C12.4444 13.4609 11.7889 11.8782 10.622 10.7113C9.4551 9.54444 7.87246 8.88889 6.22222 8.88889C4.57199 8.88889 2.98934 9.54444 1.82245 10.7113C0.655554 11.8782 2.45904e-08 13.4609 0 15.1111C0 15.3469 0.0936507 15.573 0.26035 15.7397C0.427049 15.9064 0.653141 16 0.888889 16H11.5556Z" fill="black"/>
</svg>
